<svg width="1440" height="480" viewBox="0 0 1440 480" fill="none" xmlns="http://www.w3.org/2000/svg">
<rect width="1440" height="480" fill="white"/>
<path d="M0 0.592773H1440V477.63C1143.28 226.074 820.125 248.296 719.438 246.815C618.75 245.334 241.031 279.704 0 477.63V0.592773Z" fill="#FFFFCA" fill-opacity="0.5"/>
<path d="M0 0H1440V474.074C1212.97 151 1054.41 58.6667 715.781 58.6667C333.844 58.6667 185.662 170.255 0 474.074V0Z" fill="#FDFD8C" fill-opacity="0.5"/>
<path d="M0 0H1440V355.556C1212.97 113.25 1054.33 45.2149 715.5 44.4444C342.931 57.8866 185.662 127.691 0 355.556V0Z" fill="#4BD4C8"/>
<path d="M0 0H1440V237.037C1212.97 75.5002 1054.33 30.1433 715.5 29.6296C342.931 38.5911 185.662 85.1276 0 237.037V0Z" fill="#069E91"/>
<path d="M0 0H1440V118.519C1212.97 37.7501 1054.33 15.0716 715.5 14.8148C342.931 19.2955 185.662 42.5638 0 118.519V0Z" fill="#4F0E95"/>
</svg>
